<svg width="4114" height="3458" viewBox="0 0 4114 3458" fill="none" xmlns="http://www.w3.org/2000/svg">
<rect width="4114" height="3458" fill="#7D49F4"/>
<mask id="path-2-inside-1" fill="white">
<path fill-rule="evenodd" clip-rule="evenodd" d="M820.609 850.178L730.056 315.179L1020.39 316.15L927.733 842.181C890.096 840.896 853.62 844.404 820.609 850.178ZM681.228 296.344L779.741 878.373C691.565 943.155 600.634 1053.86 529.337 1190.85C446.349 1350.3 388.647 1547.81 393.258 1755.31L394.435 1755.28C402.183 1856.42 450.796 1959.99 525.822 2028.67L525.35 2029.25C628.22 2112.64 779.981 2145.04 907.845 2099.12L907.922 2099.27C1203.82 1957.06 1576.18 1954.26 1918.02 2003.85C2026.18 2023.11 2128.3 2049.9 2224.53 2082.67C2774.55 2269.94 3133.18 2652.74 3325.56 2941.26L3325.44 2941.38L3326.05 2942L3326.47 2942.62L3326.59 2942.54L3327.41 2943.37L3327.42 2943.38C3332.08 2948.07 3335.98 2952 3339.18 2954.99C3342.73 2958.31 3346.93 2961.94 3351.97 2964.58C3357.81 2967.63 3363.23 2968.58 3368.05 2968.86C3370.49 2969 3373.84 2968.97 3376.68 2968.94L3376.74 2968.94C3377.85 2968.93 3378.88 2968.92 3379.74 2968.93C3397.98 2968.99 3412.6 2962.83 3424.92 2952.22C3436.16 2942.55 3445.26 2929.32 3453.81 2916.19L3451.74 2914.84C3491.86 2844.06 3539.58 2749.94 3578.65 2657.21C3621.04 2556.58 3654.91 2453.78 3655.14 2384.21C3655.3 2338.37 3650.49 2302.73 3632.45 2251.94L3636.51 2249.68C3478.78 1966.04 3274.57 1710.4 3032.46 1493.57L3032.63 1493.38C2900.84 1372 2754.49 1250.72 2595.22 1137.13C2599.13 1121 2602.38 1105.89 2604.9 1091.91L2605.05 1091.72L2604.95 1091.64L2604.96 1091.6L2604.89 1091.59L2435.38 961.955C2387.72 924.706 2328.42 898.942 2298.03 888.757L2293.63 901.902L2293.61 901.894C2289.74 911.679 2285.92 921.582 2282.08 931.597C2154.81 865.375 1980.68 807.203 1822.23 878.805L1822.14 878.577C1807.65 884.675 1793.27 890.879 1778.91 897.071C1676.16 941.391 1574.81 985.105 1446.51 985.151V985.147C1318.51 984.719 1217.58 940.2 1115.48 895.165C1100.51 888.565 1085.53 881.953 1070.42 875.468L1070.73 874.821C1038.86 859.851 1005.71 850.819 972.735 846.102L1069.35 297.643L1073.98 271.329L1047.26 271.24L703.488 270.089L676.769 270L681.228 296.344ZM3000.58 1525.49L3001.79 1526.6L3001.84 1526.56C3235.49 1735.69 3433.31 1981.52 3587.36 2254.02L3585.53 2254.72C3605.6 2307.59 3610.29 2339.84 3610.14 2384.06C3609.95 2443.6 3579.7 2538.8 3537.17 2639.74C3495.13 2739.55 3442.72 2841.25 3401.38 2912.15L3401.4 2912.16C3399.38 2914.53 3397.46 2916.49 3395.58 2918.11C3390.89 2922.14 3386.59 2923.95 3379.89 2923.93C3378.83 2923.92 3377.82 2923.93 3376.88 2923.93C3376.5 2923.94 3376.13 2923.94 3375.78 2923.94L3374.97 2923.95L3374.01 2923.96L3373.7 2923.96C3372.98 2923.97 3372.42 2923.97 3371.97 2923.96C3371.48 2923.55 3370.8 2922.95 3369.91 2922.12C3367.69 2920.04 3364.95 2917.31 3361.06 2913.39C3168.93 2626.27 2815.47 2248.07 2276.09 2053.08C2314.57 2025.58 2353.28 2009.3 2394.98 2003.69C2449.63 1996.33 2512.04 2006.95 2589.13 2039.13C2744.36 2103.93 2951.48 2252.69 3261.17 2498.09L3290.97 2464.46C3211.45 2385.77 3121.64 2303.8 3034.73 2224.48L3034.73 2224.48C2975.92 2170.8 2918.44 2118.35 2866.39 2068.95C2801.37 2007.23 2744.45 1950 2702.27 1899.85C2659.26 1848.72 2634.56 1808.33 2629.16 1779.98C2623.48 1750.13 2628.04 1705.18 2639.93 1651.96C2651.65 1599.52 2669.79 1541.89 2688.93 1488.08C2708.04 1434.34 2727.99 1384.84 2743.17 1348.75C2748.47 1336.15 2753.18 1325.2 2757.07 1316.29C2830.92 1375.35 2901.38 1435.58 2968.26 1496.01L2967.79 1496.56C2978.17 1505.56 2988.48 1514.64 2998.72 1523.78L3000.58 1525.49ZM1924.51 1959.29L1925.2 1959.42C1926.01 1959.53 1926.82 1959.65 1927.62 1959.77L1927.61 1959.85C2032.3 1978.58 2131.49 2004.23 2225.3 2035.44C2276.06 1993.5 2329.08 1967.15 2388.98 1959.09C2454.18 1950.32 2524.93 1963.57 2606.46 1997.6C2696.52 2035.2 2802.02 2099.17 2930.98 2190.59C2898.11 2160.39 2866.04 2130.65 2835.42 2101.59C2770.09 2039.59 2711.68 1980.95 2667.83 1928.82C2624.81 1877.67 2592.76 1829.38 2584.95 1788.4C2577.44 1748.92 2583.92 1696.29 2596.01 1642.14C2608.29 1587.21 2627.08 1527.68 2646.53 1473C2666 1418.23 2686.29 1367.91 2701.69 1331.3C2709.4 1312.98 2715.9 1298.07 2720.47 1287.72L2720.6 1287.43C2675.85 1252.4 2629.9 1217.84 2582.81 1183.96C2536.56 1346.2 2438.41 1584.22 2319.44 1818.28L2279.48 1797.97L2279.3 1798.15L1956.16 1464.73L1939.51 1447.55L1957.67 1431.98C1977.41 1415.06 1995.8 1398.2 2012.97 1381.42C2160.65 1237.01 2218.5 1097.92 2265.94 973.94C2210.73 944.857 2148.74 918.526 2084.63 903.658C1921.74 934.084 1782.46 1032.01 1666.23 1119.76L1666.07 1119.55C1657.99 1125.12 1649.76 1130.94 1641.37 1136.87L1641.35 1136.88L1641.35 1136.88C1613.9 1156.27 1584.81 1176.83 1554.4 1193.45C1514.12 1215.47 1469.39 1231.92 1417.98 1231.99L1417.98 1233.15C1366.09 1232.97 1321.1 1216.14 1280.67 1193.69C1250.38 1176.87 1221.42 1156.11 1194.1 1136.54C1185.74 1130.55 1177.54 1124.66 1169.5 1119.04L1169.33 1119.25C1143.61 1099.56 1118.28 1078.09 1093.03 1056.68L1090.07 1054.17C1063.68 1031.8 1037.26 1009.5 1009.58 988.471C965.449 954.935 918.773 925.162 865.942 904.718C873.822 913.703 883.154 924.145 893.874 935.96C923.853 969 963.619 1011.63 1010.2 1060.76C1103.35 1159.01 1223.5 1282.98 1346.57 1407.67C1469.64 1532.37 1595.54 1657.69 1700.19 1758.65C1801.32 1856.22 1881.27 1929.71 1919.93 1958.66C1921.46 1958.87 1922.98 1959.09 1924.51 1959.32L1924.51 1959.29ZM2319.01 1718.09C2312.95 1730.54 2306.83 1743.01 2300.63 1755.49L2004.96 1450.42C2012.99 1443.26 2020.8 1436.1 2028.41 1428.95L2319.01 1718.09ZM2555.27 1110.3C2526.55 1239.48 2445.91 1451.41 2339.65 1675.15L2060.57 1397.48C2211.79 1243.39 2268.5 1094.06 2316.04 968.904C2318.75 961.77 2321.43 954.715 2324.1 947.741C2350.33 959.83 2381.35 976.819 2407.76 997.476L2407.85 997.552L2407.95 997.626L2555.27 1110.3ZM1836.77 1947.84C1792.82 1909.04 1734.75 1854.52 1668.94 1791.04C1563.94 1689.73 1437.76 1564.13 1314.54 1439.28C1191.31 1314.43 1070.95 1190.24 977.546 1091.73C930.854 1042.48 890.838 999.582 860.548 966.198C839.774 943.303 823.034 924.299 811.873 910.667C729.586 969.246 640.212 1075.29 569.254 1211.62C567.982 1214.07 566.717 1216.52 565.458 1218.98C887.376 1360.38 1148.37 1619.74 1297.65 1943.99C1474.9 1921.88 1659.49 1927.26 1836.77 1947.84ZM1251.03 1950.48C1105.08 1641.18 853.977 1394.38 545.719 1259.46C482.119 1396.45 439.027 1557.63 438.018 1726.03L438.347 1726.04C438.016 1824.92 484.597 1931.6 559.105 1998.09L558.843 1998.39C650.35 2069.61 782.58 2096.07 892.138 2056.94C1003.77 2003.82 1125.19 1969.83 1251.03 1950.48ZM1036.81 952.641C1005.79 929.07 972.763 906.657 936.693 887.652C975.638 890.023 1014.92 898.322 1051.59 915.55L1055.11 908.049L1051.56 916.342C1066.42 922.714 1081.39 929.336 1096.55 936.039L1096.55 936.039C1197.83 980.833 1307.17 1029.19 1444.26 1030.14V1030.15C1583.55 1030.61 1694.3 982.723 1797.22 938.217C1811.03 932.244 1824.7 926.332 1838.28 920.607L1838.41 920.888C1878.65 902.307 1920.51 893.26 1962.7 891.357C1838.3 937.787 1730.65 1014.8 1641.18 1082.29L1641.07 1082.13C1631.82 1088.49 1622.77 1094.89 1613.81 1101.22L1613.8 1101.23C1586.84 1120.27 1560.74 1138.71 1532.82 1153.97C1496.28 1173.93 1458.77 1187.13 1416.98 1186.99L1416.98 1188.14C1375.65 1187.76 1338.58 1174.38 1302.52 1154.35C1274.7 1138.9 1248.72 1120.29 1221.89 1101.07C1212.97 1094.68 1203.96 1088.22 1194.75 1081.79L1194.64 1081.94C1170.52 1063.38 1146.62 1043.11 1121.81 1022.08L1121.81 1022.08L1121.8 1022.08L1121.8 1022.07L1119.16 1019.84C1092.86 997.546 1065.57 974.496 1036.81 952.641ZM2908.96 1907.5C2908.96 1923.24 2896.2 1936 2880.46 1936C2864.72 1936 2851.96 1923.24 2851.96 1907.5C2851.96 1891.76 2864.72 1879 2880.46 1879C2896.2 1879 2908.96 1891.76 2908.96 1907.5ZM2803.46 1848C2819.2 1848 2831.96 1835.24 2831.96 1819.5C2831.96 1803.76 2819.2 1791 2803.46 1791C2787.72 1791 2774.96 1803.76 2774.96 1819.5C2774.96 1835.24 2787.72 1848 2803.46 1848ZM2774.96 1695.5C2774.96 1711.24 2762.2 1724 2746.46 1724C2730.72 1724 2717.96 1711.24 2717.96 1695.5C2717.96 1679.76 2730.72 1667 2746.46 1667C2762.2 1667 2774.96 1679.76 2774.96 1695.5Z"/>
</mask>
<path fill-rule="evenodd" clip-rule="evenodd" d="M820.609 850.178L730.056 315.179L1020.39 316.15L927.733 842.181C890.096 840.896 853.62 844.404 820.609 850.178ZM681.228 296.344L779.741 878.373C691.565 943.155 600.634 1053.86 529.337 1190.85C446.349 1350.3 388.647 1547.81 393.258 1755.31L394.435 1755.28C402.183 1856.42 450.796 1959.99 525.822 2028.67L525.35 2029.25C628.22 2112.64 779.981 2145.04 907.845 2099.12L907.922 2099.27C1203.82 1957.06 1576.18 1954.26 1918.02 2003.85C2026.18 2023.11 2128.3 2049.9 2224.53 2082.67C2774.55 2269.94 3133.18 2652.74 3325.56 2941.26L3325.44 2941.38L3326.05 2942L3326.47 2942.62L3326.59 2942.54L3327.41 2943.37L3327.42 2943.38C3332.08 2948.07 3335.98 2952 3339.18 2954.99C3342.73 2958.31 3346.93 2961.94 3351.97 2964.58C3357.81 2967.63 3363.23 2968.58 3368.05 2968.86C3370.49 2969 3373.84 2968.97 3376.68 2968.94L3376.74 2968.94C3377.85 2968.93 3378.88 2968.92 3379.74 2968.93C3397.98 2968.99 3412.6 2962.83 3424.92 2952.22C3436.16 2942.55 3445.26 2929.32 3453.81 2916.19L3451.74 2914.84C3491.86 2844.06 3539.58 2749.94 3578.65 2657.21C3621.04 2556.58 3654.91 2453.78 3655.14 2384.21C3655.3 2338.37 3650.49 2302.73 3632.45 2251.94L3636.51 2249.68C3478.78 1966.04 3274.57 1710.4 3032.46 1493.57L3032.63 1493.38C2900.84 1372 2754.49 1250.72 2595.22 1137.13C2599.13 1121 2602.38 1105.89 2604.9 1091.91L2605.05 1091.72L2604.95 1091.64L2604.96 1091.6L2604.89 1091.59L2435.38 961.955C2387.72 924.706 2328.42 898.942 2298.03 888.757L2293.63 901.902L2293.61 901.894C2289.74 911.679 2285.92 921.582 2282.08 931.597C2154.81 865.375 1980.68 807.203 1822.23 878.805L1822.14 878.577C1807.65 884.675 1793.27 890.879 1778.91 897.071C1676.16 941.391 1574.81 985.105 1446.51 985.151V985.147C1318.51 984.719 1217.58 940.2 1115.48 895.165C1100.51 888.565 1085.53 881.953 1070.42 875.468L1070.73 874.821C1038.86 859.851 1005.71 850.819 972.735 846.102L1069.35 297.643L1073.98 271.329L1047.26 271.24L703.488 270.089L676.769 270L681.228 296.344ZM3000.58 1525.49L3001.79 1526.6L3001.84 1526.56C3235.49 1735.69 3433.31 1981.52 3587.36 2254.02L3585.53 2254.72C3605.6 2307.59 3610.29 2339.84 3610.14 2384.06C3609.95 2443.6 3579.7 2538.8 3537.17 2639.74C3495.13 2739.55 3442.72 2841.25 3401.38 2912.15L3401.4 2912.16C3399.38 2914.53 3397.46 2916.49 3395.58 2918.11C3390.89 2922.14 3386.59 2923.95 3379.89 2923.93C3378.83 2923.92 3377.82 2923.93 3376.88 2923.93C3376.5 2923.94 3376.13 2923.94 3375.78 2923.94L3374.97 2923.95L3374.01 2923.96L3373.7 2923.96C3372.98 2923.97 3372.42 2923.97 3371.97 2923.96C3371.48 2923.55 3370.8 2922.95 3369.91 2922.12C3367.69 2920.04 3364.95 2917.31 3361.06 2913.39C3168.93 2626.27 2815.47 2248.07 2276.09 2053.08C2314.57 2025.58 2353.28 2009.3 2394.98 2003.69C2449.63 1996.33 2512.04 2006.95 2589.13 2039.13C2744.36 2103.93 2951.48 2252.69 3261.17 2498.09L3290.97 2464.46C3211.45 2385.77 3121.64 2303.8 3034.73 2224.48L3034.73 2224.48C2975.92 2170.8 2918.44 2118.35 2866.39 2068.95C2801.37 2007.23 2744.45 1950 2702.27 1899.85C2659.26 1848.72 2634.56 1808.33 2629.16 1779.98C2623.48 1750.13 2628.04 1705.18 2639.93 1651.96C2651.65 1599.52 2669.79 1541.89 2688.93 1488.08C2708.04 1434.34 2727.99 1384.84 2743.17 1348.75C2748.47 1336.15 2753.18 1325.2 2757.07 1316.29C2830.92 1375.35 2901.38 1435.58 2968.26 1496.01L2967.79 1496.56C2978.17 1505.56 2988.48 1514.64 2998.72 1523.78L3000.58 1525.49ZM1924.51 1959.29L1925.2 1959.42C1926.01 1959.53 1926.82 1959.65 1927.62 1959.77L1927.61 1959.85C2032.3 1978.58 2131.49 2004.23 2225.3 2035.44C2276.06 1993.5 2329.08 1967.15 2388.98 1959.09C2454.18 1950.32 2524.93 1963.57 2606.46 1997.6C2696.52 2035.2 2802.02 2099.17 2930.98 2190.59C2898.11 2160.39 2866.04 2130.65 2835.42 2101.59C2770.09 2039.59 2711.68 1980.95 2667.83 1928.82C2624.81 1877.67 2592.76 1829.38 2584.95 1788.4C2577.44 1748.92 2583.92 1696.29 2596.01 1642.14C2608.29 1587.21 2627.08 1527.68 2646.53 1473C2666 1418.23 2686.29 1367.91 2701.69 1331.3C2709.4 1312.98 2715.9 1298.07 2720.47 1287.72L2720.6 1287.43C2675.85 1252.4 2629.9 1217.84 2582.81 1183.96C2536.56 1346.2 2438.41 1584.22 2319.44 1818.28L2279.48 1797.97L2279.3 1798.15L1956.16 1464.73L1939.51 1447.55L1957.67 1431.98C1977.41 1415.06 1995.8 1398.2 2012.97 1381.42C2160.65 1237.01 2218.5 1097.92 2265.94 973.94C2210.73 944.857 2148.74 918.526 2084.63 903.658C1921.74 934.084 1782.46 1032.01 1666.23 1119.76L1666.07 1119.55C1657.99 1125.12 1649.76 1130.94 1641.37 1136.87L1641.35 1136.88L1641.35 1136.88C1613.9 1156.27 1584.81 1176.83 1554.4 1193.45C1514.12 1215.47 1469.39 1231.92 1417.98 1231.99L1417.98 1233.15C1366.09 1232.97 1321.1 1216.14 1280.67 1193.69C1250.38 1176.87 1221.42 1156.11 1194.1 1136.54C1185.74 1130.55 1177.54 1124.66 1169.5 1119.04L1169.33 1119.25C1143.61 1099.56 1118.28 1078.09 1093.03 1056.68L1090.07 1054.17C1063.68 1031.8 1037.26 1009.5 1009.58 988.471C965.449 954.935 918.773 925.162 865.942 904.718C873.822 913.703 883.154 924.145 893.874 935.96C923.853 969 963.619 1011.63 1010.2 1060.76C1103.35 1159.01 1223.5 1282.98 1346.57 1407.67C1469.64 1532.37 1595.54 1657.69 1700.19 1758.65C1801.32 1856.22 1881.27 1929.71 1919.93 1958.66C1921.46 1958.87 1922.98 1959.09 1924.51 1959.32L1924.51 1959.29ZM2319.01 1718.09C2312.95 1730.54 2306.83 1743.01 2300.63 1755.49L2004.96 1450.42C2012.99 1443.26 2020.8 1436.1 2028.41 1428.95L2319.01 1718.09ZM2555.27 1110.3C2526.55 1239.48 2445.91 1451.41 2339.65 1675.15L2060.57 1397.48C2211.79 1243.39 2268.5 1094.06 2316.04 968.904C2318.75 961.77 2321.43 954.715 2324.1 947.741C2350.33 959.83 2381.35 976.819 2407.76 997.476L2407.85 997.552L2407.95 997.626L2555.27 1110.3ZM1836.77 1947.84C1792.82 1909.04 1734.75 1854.52 1668.94 1791.04C1563.94 1689.73 1437.76 1564.13 1314.54 1439.28C1191.31 1314.43 1070.95 1190.24 977.546 1091.73C930.854 1042.48 890.838 999.582 860.548 966.198C839.774 943.303 823.034 924.299 811.873 910.667C729.586 969.246 640.212 1075.29 569.254 1211.62C567.982 1214.07 566.717 1216.52 565.458 1218.98C887.376 1360.38 1148.37 1619.74 1297.65 1943.99C1474.9 1921.88 1659.49 1927.26 1836.77 1947.84ZM1251.03 1950.48C1105.08 1641.18 853.977 1394.38 545.719 1259.46C482.119 1396.45 439.027 1557.63 438.018 1726.03L438.347 1726.04C438.016 1824.92 484.597 1931.6 559.105 1998.09L558.843 1998.39C650.35 2069.61 782.58 2096.07 892.138 2056.94C1003.77 2003.82 1125.19 1969.83 1251.03 1950.48ZM1036.81 952.641C1005.79 929.07 972.763 906.657 936.693 887.652C975.638 890.023 1014.92 898.322 1051.59 915.55L1055.11 908.049L1051.56 916.342C1066.42 922.714 1081.39 929.336 1096.55 936.039L1096.55 936.039C1197.83 980.833 1307.17 1029.19 1444.26 1030.14V1030.15C1583.55 1030.61 1694.3 982.723 1797.22 938.217C1811.03 932.244 1824.7 926.332 1838.28 920.607L1838.41 920.888C1878.65 902.307 1920.51 893.26 1962.7 891.357C1838.3 937.787 1730.65 1014.8 1641.18 1082.29L1641.07 1082.13C1631.82 1088.49 1622.77 1094.89 1613.81 1101.22L1613.8 1101.23C1586.84 1120.27 1560.74 1138.71 1532.82 1153.97C1496.28 1173.93 1458.77 1187.13 1416.98 1186.99L1416.98 1188.14C1375.65 1187.76 1338.58 1174.38 1302.52 1154.35C1274.7 1138.9 1248.72 1120.29 1221.89 1101.07C1212.97 1094.68 1203.96 1088.22 1194.75 1081.79L1194.64 1081.94C1170.52 1063.38 1146.62 1043.11 1121.81 1022.08L1121.81 1022.08L1121.8 1022.08L1121.8 1022.07L1119.16 1019.84C1092.86 997.546 1065.57 974.496 1036.81 952.641ZM2908.96 1907.5C2908.96 1923.24 2896.2 1936 2880.46 1936C2864.72 1936 2851.96 1923.24 2851.96 1907.5C2851.96 1891.76 2864.72 1879 2880.46 1879C2896.2 1879 2908.96 1891.76 2908.96 1907.5ZM2803.46 1848C2819.2 1848 2831.96 1835.24 2831.96 1819.5C2831.96 1803.76 2819.2 1791 2803.46 1791C2787.72 1791 2774.96 1803.76 2774.96 1819.5C2774.96 1835.24 2787.72 1848 2803.46 1848ZM2774.96 1695.5C2774.96 1711.24 2762.2 1724 2746.46 1724C2730.72 1724 2717.96 1711.24 2717.96 1695.5C2717.96 1679.76 2730.72 1667 2746.46 1667C2762.2 1667 2774.96 1679.76 2774.96 1695.5Z" fill="white"/>
<path d="M730.056 315.179L730.206 270.179L676.769 270L685.687 322.688L730.056 315.179ZM820.609 850.178L776.24 857.688L783.791 902.302L828.363 894.505L820.609 850.178ZM1020.39 316.15L1064.71 323.957L1073.98 271.329L1020.54 271.15L1020.39 316.15ZM927.733 842.181L926.198 887.154L965.269 888.488L972.051 849.987L927.733 842.181ZM779.741 878.373L806.385 914.638L828.74 898.214L824.11 870.864L779.741 878.373ZM681.228 296.344L636.859 303.854L636.859 303.854L681.228 296.344ZM529.337 1190.85L489.419 1170.07L489.419 1170.07L529.337 1190.85ZM393.258 1755.31L348.269 1756.31L349.268 1801.3L394.256 1800.3L393.258 1755.31ZM394.435 1755.28L439.304 1751.85L436.048 1709.35L393.437 1710.29L394.435 1755.28ZM525.822 2028.67L560.777 2057L587.467 2024.09L556.205 1995.47L525.822 2028.67ZM525.35 2029.25L490.395 2000.91L462.054 2035.86L497.013 2064.2L525.35 2029.25ZM907.845 2099.12L948.407 2079.63L930.831 2043.05L892.634 2056.76L907.845 2099.12ZM907.922 2099.27L867.361 2118.76L886.851 2159.33L927.415 2139.83L907.922 2099.27ZM1918.02 2003.85L1925.91 1959.54L1925.2 1959.42L1924.48 1959.31L1918.02 2003.85ZM2224.53 2082.67L2210.03 2125.27L2210.03 2125.27L2224.53 2082.67ZM3325.56 2941.26L3357.29 2973.18L3383.54 2947.09L3363 2916.3L3325.56 2941.26ZM3325.44 2941.38L3293.72 2909.47L3261.83 2941.17L3293.5 2973.08L3325.44 2941.38ZM3326.05 2942L3363.51 2917.05L3361.08 2913.41L3357.99 2910.3L3326.05 2942ZM3326.47 2942.62L3289.01 2967.56L3313.96 3005.02L3351.41 2980.07L3326.47 2942.62ZM3326.59 2942.54L3358.53 2910.84L3332.46 2884.56L3301.64 2905.08L3326.59 2942.54ZM3327.41 2943.37L3295.47 2975.06L3295.53 2975.13L3295.59 2975.19L3327.41 2943.37ZM3327.42 2943.38L3359.36 2911.68L3359.3 2911.62L3359.24 2911.56L3327.42 2943.38ZM3339.18 2954.99L3308.45 2987.87L3308.46 2987.87L3339.18 2954.99ZM3351.97 2964.58L3331.13 3004.46L3331.13 3004.46L3351.97 2964.58ZM3368.05 2968.86L3365.46 3013.78L3365.47 3013.78L3368.05 2968.86ZM3376.68 2968.94L3377.06 3013.94L3377.11 3013.94L3377.16 3013.94L3376.68 2968.94ZM3376.74 2968.94L3376.37 2923.94L3376.31 2923.94L3376.26 2923.94L3376.74 2968.94ZM3379.74 2968.93L3379.58 3013.93L3379.59 3013.93L3379.74 2968.93ZM3424.92 2952.22L3454.27 2986.34L3454.27 2986.34L3424.92 2952.22ZM3453.81 2916.19L3491.52 2940.73L3516.07 2903.02L3478.35 2878.47L3453.81 2916.19ZM3451.74 2914.84L3412.59 2892.65L3391.72 2929.47L3427.19 2952.56L3451.74 2914.84ZM3578.65 2657.21L3620.12 2674.68L3620.12 2674.68L3578.65 2657.21ZM3655.14 2384.21L3610.14 2384.06L3610.14 2384.06L3655.14 2384.21ZM3632.45 2251.94L3610.58 2212.61L3577.3 2231.11L3590.04 2266.99L3632.45 2251.94ZM3636.51 2249.68L3658.39 2289L3697.71 2267.13L3675.84 2227.81L3636.51 2249.68ZM3032.46 1493.57L2999.48 1462.95L2968.3 1496.53L3002.43 1527.1L3032.46 1493.57ZM3032.63 1493.38L3065.61 1524.01L3096.35 1490.9L3063.12 1460.28L3032.63 1493.38ZM2595.22 1137.13L2551.49 1126.52L2544.32 1156.09L2569.09 1173.76L2595.22 1137.13ZM2604.9 1091.91L2569.15 1064.58L2562.56 1073.21L2560.62 1083.9L2604.9 1091.91ZM2605.05 1091.72L2640.81 1119.04L2668.14 1083.27L2632.36 1055.95L2605.05 1091.72ZM2604.95 1091.64L2560.69 1083.53L2555.72 1110.66L2577.64 1127.41L2604.95 1091.64ZM2604.96 1091.6L2649.22 1099.72L2657.36 1055.32L2612.94 1047.32L2604.96 1091.6ZM2604.89 1091.59L2577.55 1127.34L2586.2 1133.95L2596.91 1135.88L2604.89 1091.59ZM2435.38 961.955L2407.67 997.41L2407.86 997.555L2408.05 997.699L2435.38 961.955ZM2298.03 888.757L2312.34 846.09L2269.67 831.788L2255.37 874.454L2298.03 888.757ZM2293.63 901.902L2277.08 943.751L2321.21 961.193L2336.29 916.204L2293.63 901.902ZM2293.61 901.894L2310.15 860.045L2268.29 843.497L2251.75 885.368L2293.61 901.894ZM2282.08 931.597L2261.31 971.517L2306.07 994.803L2324.11 947.689L2282.08 931.597ZM1822.23 878.805L1780.76 896.265L1798.68 938.83L1840.76 919.812L1822.23 878.805ZM1822.14 878.577L1863.61 861.116L1846.15 819.645L1804.68 837.101L1822.14 878.577ZM1778.91 897.071L1796.73 938.391L1796.73 938.391L1778.91 897.071ZM1446.51 985.151H1401.51V1030.17L1446.52 1030.15L1446.51 985.151ZM1446.51 985.147H1491.51V940.297L1446.66 940.147L1446.51 985.147ZM1115.48 895.165L1097.32 936.337L1097.32 936.337L1115.48 895.165ZM1070.42 875.468L1029.69 856.332L1009.9 898.454L1052.67 916.817L1070.42 875.468ZM1070.73 874.821L1111.46 893.958L1130.59 853.229L1089.86 834.093L1070.73 874.821ZM972.735 846.102L928.418 838.295L920.355 884.066L966.362 890.648L972.735 846.102ZM1069.35 297.643L1113.66 305.45L1113.66 305.45L1069.35 297.643ZM1073.98 271.329L1118.3 279.136L1127.57 226.508L1074.13 226.33L1073.98 271.329ZM1047.26 271.24L1047.41 226.24L1047.26 271.24ZM703.488 270.089L703.638 225.09L703.488 270.089ZM676.769 270L676.92 225L623.482 224.821L632.4 277.51L676.769 270ZM3001.79 1526.6L2971.31 1559.71L3004.28 1590.06L3034.77 1557.22L3001.79 1526.6ZM3000.58 1525.49L3031.06 1492.38L3031.05 1492.37L3031.05 1492.37L3000.58 1525.49ZM3001.84 1526.56L3031.85 1493.03L2998.92 1463.56L2968.86 1495.94L3001.84 1526.56ZM3587.36 2254.02L3603.33 2296.09L3652.32 2277.49L3626.53 2231.88L3587.36 2254.02ZM3585.53 2254.72L3569.55 2212.65L3527.49 2228.62L3543.46 2270.69L3585.53 2254.72ZM3610.14 2384.06L3655.14 2384.21L3655.14 2384.21L3610.14 2384.06ZM3537.17 2639.74L3495.7 2622.27L3495.7 2622.27L3537.17 2639.74ZM3401.38 2912.15L3362.51 2889.48L3339.92 2928.23L3378.59 2950.95L3401.38 2912.15ZM3401.4 2912.16L3435.6 2941.41L3470.52 2900.58L3424.2 2873.36L3401.4 2912.16ZM3395.58 2918.11L3424.92 2952.22L3424.92 2952.22L3395.58 2918.11ZM3379.89 2923.93L3380.04 2878.93L3380.03 2878.93L3379.89 2923.93ZM3376.88 2923.93L3376.57 2878.94L3376.56 2878.94L3376.88 2923.93ZM3375.78 2923.94L3375.38 2878.95L3375.36 2878.95L3375.78 2923.94ZM3374.97 2923.95L3375.38 2968.95L3375.39 2968.95L3374.97 2923.95ZM3374.01 2923.96L3374.37 2968.96L3374.4 2968.96L3374.42 2968.96L3374.01 2923.96ZM3373.7 2923.96L3374.02 2968.96L3374.04 2968.96L3374.06 2968.96L3373.7 2923.96ZM3371.97 2923.96L3342.83 2958.26L3355.29 2968.84L3371.63 2968.96L3371.97 2923.96ZM3369.91 2922.12L3400.64 2889.24L3400.63 2889.24L3369.91 2922.12ZM3361.06 2913.39L3323.66 2938.41L3326.07 2942.02L3329.13 2945.1L3361.06 2913.39ZM2276.09 2053.08L2249.93 2016.46L2180.22 2066.27L2260.79 2095.4L2276.09 2053.08ZM2394.98 2003.69L2400.98 2048.28L2400.98 2048.28L2394.98 2003.69ZM2589.13 2039.13L2571.79 2080.66L2571.79 2080.66L2589.13 2039.13ZM3261.17 2498.09L3233.22 2533.36L3266.6 2559.81L3294.85 2527.93L3261.17 2498.09ZM3290.97 2464.46L3324.65 2494.3L3352.9 2462.43L3322.62 2432.47L3290.97 2464.46ZM3034.73 2224.48L3065.07 2191.24L3064.32 2190.56L3063.54 2189.91L3034.73 2224.48ZM3034.73 2224.48L3004.39 2257.72L3005.14 2258.4L3005.92 2259.05L3034.73 2224.48ZM2866.39 2068.95L2835.42 2101.59L2835.42 2101.59L2866.39 2068.95ZM2702.27 1899.85L2667.83 1928.82L2667.83 1928.82L2702.27 1899.85ZM2629.16 1779.98L2673.37 1771.56L2673.37 1771.56L2629.16 1779.98ZM2639.93 1651.96L2683.85 1661.77L2683.85 1661.77L2639.93 1651.96ZM2688.93 1488.08L2646.53 1473L2646.53 1473L2688.93 1488.08ZM2743.17 1348.75L2701.69 1331.29L2701.69 1331.3L2743.17 1348.75ZM2757.07 1316.29L2785.18 1281.15L2739.31 1244.46L2715.83 1298.29L2757.07 1316.29ZM2968.26 1496.01L3002.27 1525.49L3031.14 1492.18L2998.43 1462.63L2968.26 1496.01ZM2967.79 1496.56L2933.78 1467.09L2904.31 1501.09L2938.31 1530.56L2967.79 1496.56ZM2998.72 1523.78L3029.19 1490.66L3028.94 1490.43L3028.69 1490.2L2998.72 1523.78ZM1925.2 1959.42L1917.33 2003.72L1918.03 2003.85L1918.74 2003.95L1925.2 1959.42ZM1924.51 1959.29L1932.38 1914.99L1888.12 1907.13L1880.21 1951.37L1924.51 1959.29ZM1927.62 1959.77L1972.15 1966.25L1978.63 1921.74L1934.12 1915.24L1927.62 1959.77ZM1927.61 1959.85L1883.08 1953.36L1876.81 1996.47L1919.69 2004.14L1927.61 1959.85ZM2225.3 2035.44L2211.09 2078.14L2234.74 2086.01L2253.96 2070.13L2225.3 2035.44ZM2388.98 1959.09L2382.98 1914.49L2382.98 1914.49L2388.98 1959.09ZM2606.46 1997.6L2589.13 2039.13L2589.13 2039.13L2606.46 1997.6ZM2930.98 2190.59L2904.95 2227.3L2961.42 2157.45L2930.98 2190.59ZM2835.42 2101.59L2866.39 2068.95L2866.39 2068.95L2835.42 2101.59ZM2667.83 1928.82L2702.27 1899.85L2702.27 1899.85L2667.83 1928.82ZM2584.95 1788.4L2540.75 1796.82L2540.75 1796.82L2584.95 1788.4ZM2596.01 1642.14L2639.93 1651.96L2639.93 1651.96L2596.01 1642.14ZM2646.53 1473L2688.93 1488.08L2688.93 1488.08L2646.53 1473ZM2701.69 1331.3L2660.22 1313.84L2660.21 1313.84L2701.69 1331.3ZM2720.47 1287.72L2761.63 1305.92L2761.63 1305.91L2720.47 1287.72ZM2720.6 1287.43L2761.76 1305.62L2775.92 1273.58L2748.34 1251.99L2720.6 1287.43ZM2582.81 1183.96L2609.09 1147.43L2557.1 1110.01L2539.53 1171.62L2582.81 1183.96ZM2319.44 1818.28L2299.05 1858.4L2339.17 1878.79L2359.56 1838.67L2319.44 1818.28ZM2279.48 1797.97L2299.87 1757.86L2271.23 1743.3L2248.16 1765.66L2279.48 1797.97ZM2279.3 1798.15L2246.99 1829.47L2278.31 1861.78L2310.62 1830.46L2279.3 1798.15ZM1956.16 1464.73L1988.47 1433.41L1988.47 1433.41L1956.16 1464.73ZM1939.51 1447.55L1910.22 1413.38L1873.9 1444.51L1907.2 1478.87L1939.51 1447.55ZM1957.67 1431.98L1986.96 1466.15L1986.96 1466.15L1957.67 1431.98ZM2012.97 1381.42L2044.43 1413.59L2044.43 1413.59L2012.97 1381.42ZM2265.94 973.94L2307.97 990.02L2322.24 952.731L2286.91 934.125L2265.94 973.94ZM2084.63 903.658L2094.8 859.822L2085.62 857.694L2076.37 859.423L2084.63 903.658ZM1666.23 1119.76L1630.31 1146.88L1657.43 1182.8L1693.35 1155.68L1666.23 1119.76ZM1666.07 1119.55L1701.99 1092.44L1676.02 1058.04L1640.53 1082.5L1666.07 1119.55ZM1641.37 1136.87L1667.23 1173.69L1667.28 1173.66L1667.34 1173.62L1641.37 1136.87ZM1641.35 1136.88L1615.49 1100.05L1614.91 1100.45L1614.35 1100.88L1641.35 1136.88ZM1641.35 1136.88L1667.32 1173.63L1667.84 1173.26L1668.35 1172.88L1641.35 1136.88ZM1554.4 1193.45L1532.82 1153.97L1532.82 1153.97L1554.4 1193.45ZM1417.98 1231.99L1417.92 1186.99L1373.13 1187.05L1372.98 1231.84L1417.98 1231.99ZM1417.98 1233.15L1417.83 1278.15L1462.83 1278.3L1462.98 1233.3L1417.98 1233.15ZM1280.67 1193.69L1258.83 1233.03L1258.83 1233.03L1280.67 1193.69ZM1194.1 1136.54L1167.89 1173.11L1167.89 1173.11L1194.1 1136.54ZM1169.5 1119.04L1195.29 1082.16L1159.97 1057.47L1133.77 1091.68L1169.5 1119.04ZM1169.33 1119.25L1141.98 1154.98L1177.71 1182.34L1205.06 1146.61L1169.33 1119.25ZM1093.03 1056.68L1122.13 1022.36L1122.13 1022.35L1093.03 1056.68ZM1090.07 1054.17L1119.17 1019.85L1119.16 1019.84L1090.07 1054.17ZM1009.58 988.471L982.358 1024.3L982.358 1024.3L1009.58 988.471ZM865.942 904.718L882.182 862.751L832.109 934.388L865.942 904.718ZM893.874 935.96L927.201 905.722L927.201 905.722L893.874 935.96ZM1010.2 1060.76L1042.86 1029.8L1042.86 1029.8L1010.2 1060.76ZM1346.57 1407.67L1314.54 1439.28L1314.54 1439.28L1346.57 1407.67ZM1700.19 1758.65L1731.43 1726.26L1731.43 1726.26L1700.19 1758.65ZM1919.93 1958.66L1892.97 1994.68L1902.16 2001.56L1913.54 2003.2L1919.93 1958.66ZM1924.51 1959.32L1918.05 2003.85L1961.14 2010.1L1968.8 1967.23L1924.51 1959.32ZM2300.63 1755.49L2268.31 1786.81L2312.62 1832.52L2340.93 1775.5L2300.63 1755.49ZM2319.01 1718.09L2359.48 1737.78L2373.54 1708.87L2350.75 1686.19L2319.01 1718.09ZM2004.96 1450.42L1975.02 1416.82L1939.99 1448.04L1972.64 1481.74L2004.96 1450.42ZM2028.41 1428.95L2060.15 1397.05L2029.29 1366.35L1997.58 1396.17L2028.41 1428.95ZM2339.65 1675.15L2307.91 1707.05L2353.01 1751.92L2380.3 1694.46L2339.65 1675.15ZM2555.27 1110.3L2599.2 1120.06L2605.44 1092.01L2582.61 1074.55L2555.27 1110.3ZM2060.57 1397.48L2028.45 1365.96L1997.15 1397.85L2028.83 1429.38L2060.57 1397.48ZM2316.04 968.904L2358.11 984.882L2358.11 984.882L2316.04 968.904ZM2324.1 947.741L2342.93 906.873L2299.24 886.738L2282.07 931.673L2324.1 947.741ZM2407.76 997.476L2380.03 1032.92L2380.04 1032.92L2407.76 997.476ZM2407.85 997.552L2380.13 1033L2380.32 1033.15L2380.51 1033.29L2407.85 997.552ZM2407.95 997.626L2380.61 1033.37L2380.61 1033.37L2407.95 997.626ZM1668.94 1791.04L1637.7 1823.42L1637.7 1823.42L1668.94 1791.04ZM1836.77 1947.84L1831.58 1992.54L1974.14 2009.1L1866.56 1914.11L1836.77 1947.84ZM1314.54 1439.28L1346.57 1407.67L1346.57 1407.67L1314.54 1439.28ZM977.546 1091.73L1010.2 1060.76L1010.2 1060.76L977.546 1091.73ZM860.548 966.198L827.221 996.437L827.221 996.437L860.548 966.198ZM811.873 910.667L846.692 882.16L820.045 849.612L785.776 874.008L811.873 910.667ZM569.254 1211.62L529.337 1190.85L529.336 1190.85L569.254 1211.62ZM565.458 1218.98L525.395 1198.49L503.658 1240.98L547.361 1260.18L565.458 1218.98ZM1297.65 1943.99L1256.78 1962.81L1270.55 1992.72L1303.23 1988.64L1297.65 1943.99ZM545.719 1259.46L563.762 1218.24L523.439 1200.59L504.904 1240.51L545.719 1259.46ZM1251.03 1950.48L1257.87 1994.95L1317.45 1985.79L1291.73 1931.27L1251.03 1950.48ZM438.018 1726.03L393.019 1725.76L392.749 1770.88L437.868 1771.03L438.018 1726.03ZM438.347 1726.04L483.347 1726.19L483.498 1681.19L438.498 1681.04L438.347 1726.04ZM559.105 1998.09L592.68 2028.05L622.642 1994.48L589.067 1964.52L559.105 1998.09ZM558.843 1998.39L525.268 1968.42L493.222 2004.33L531.203 2033.9L558.843 1998.39ZM892.138 2056.94L907.272 2099.32L909.417 2098.55L911.474 2097.58L892.138 2056.94ZM936.693 887.652L939.428 842.735L915.716 927.464L936.693 887.652ZM1036.81 952.641L1009.58 988.471L1009.58 988.471L1036.81 952.641ZM1051.59 915.55L1032.45 956.278L1073.18 975.414L1092.32 934.686L1051.59 915.55ZM1055.11 908.049L1096.47 925.784L1014.39 888.913L1055.11 908.049ZM1051.56 916.342L1010.2 898.607L992.466 939.965L1033.82 957.7L1051.56 916.342ZM1096.55 936.039L1078.35 977.194L1080.3 978.056L1082.32 978.73L1096.55 936.039ZM1096.55 936.039L1114.75 894.885L1112.8 894.023L1110.78 893.348L1096.55 936.039ZM1444.26 1030.14H1489.26V985.445L1444.57 985.137L1444.26 1030.14ZM1444.26 1030.15H1399.26V1075L1444.11 1075.15L1444.26 1030.15ZM1797.22 938.217L1779.35 896.913L1779.35 896.913L1797.22 938.217ZM1838.28 920.607L1879.13 901.737L1860.89 862.238L1820.8 879.142L1838.28 920.607ZM1838.41 920.888L1797.56 939.758L1816.42 980.603L1857.27 961.743L1838.41 920.888ZM1962.7 891.357L1978.43 933.517L1960.67 846.403L1962.7 891.357ZM1641.18 1082.29L1604.12 1107.81L1630.77 1146.51L1668.29 1118.21L1641.18 1082.29ZM1641.07 1082.13L1678.14 1056.6L1652.61 1019.54L1615.55 1045.06L1641.07 1082.13ZM1613.81 1101.22L1639.54 1138.14L1639.66 1138.06L1639.77 1137.97L1613.81 1101.22ZM1613.8 1101.23L1588.07 1064.31L1587.95 1064.39L1587.83 1064.47L1613.8 1101.23ZM1532.82 1153.97L1554.4 1193.45L1554.4 1193.45L1532.82 1153.97ZM1416.98 1186.99L1417.13 1141.99L1372.13 1141.84L1371.98 1186.84L1416.98 1186.99ZM1416.98 1188.14L1416.56 1233.14L1461.83 1233.56L1461.98 1188.29L1416.98 1188.14ZM1302.52 1154.35L1280.67 1193.69L1280.67 1193.69L1302.52 1154.35ZM1221.89 1101.07L1195.69 1137.65L1195.69 1137.65L1221.89 1101.07ZM1194.75 1081.79L1220.52 1044.89L1183.62 1019.12L1157.85 1056.02L1194.75 1081.79ZM1194.64 1081.94L1167.18 1117.6L1204.53 1146.36L1231.53 1107.71L1194.64 1081.94ZM1121.81 1022.08L1092.17 1055.95L1092.44 1056.18L1092.71 1056.41L1121.81 1022.08ZM1121.81 1022.08L1151.44 988.217L1151.27 988.066L1151.09 987.916L1121.81 1022.08ZM1121.8 1022.08L1091.9 1055.71L1092.2 1055.98L1092.51 1056.24L1121.8 1022.08ZM1121.8 1022.07L1151.69 988.441L1151.3 988.09L1150.89 987.747L1121.8 1022.07ZM1119.16 1019.84L1148.26 985.516L1148.26 985.515L1119.16 1019.84ZM685.687 322.688L776.24 857.688L864.978 842.668L774.425 307.669L685.687 322.688ZM1020.54 271.15L730.206 270.179L729.905 360.178L1020.24 361.15L1020.54 271.15ZM972.051 849.987L1064.71 323.957L976.077 308.344L883.416 834.374L972.051 849.987ZM828.363 894.505C858.959 889.153 892.269 885.996 926.198 887.154L929.268 797.207C887.924 795.796 848.282 799.654 812.855 805.851L828.363 894.505ZM824.11 870.864L725.597 288.834L636.859 303.854L735.372 885.883L824.11 870.864ZM569.254 1211.62C638.272 1079.01 725.144 974.325 806.385 914.638L753.098 842.109C657.986 911.986 562.997 1028.7 489.419 1170.07L569.254 1211.62ZM438.247 1754.31C433.831 1555.58 489.161 1365.51 569.254 1211.62L489.419 1170.07C403.536 1335.09 343.463 1540.04 348.269 1756.31L438.247 1754.31ZM393.437 1710.29L392.26 1710.32L394.256 1800.3L395.433 1800.27L393.437 1710.29ZM556.205 1995.47C489.967 1934.84 446.216 1842.07 439.304 1751.85L349.567 1758.72C358.15 1870.77 411.625 1985.14 495.439 2061.86L556.205 1995.47ZM560.306 2057.59L560.777 2057L490.867 2000.33L490.395 2000.91L560.306 2057.59ZM892.634 2056.76C780.912 2096.89 645.474 2068.7 553.688 1994.29L497.013 2064.2C610.965 2156.58 779.049 2193.19 923.057 2141.47L892.634 2056.76ZM948.483 2079.79L948.407 2079.63L867.284 2118.6L867.361 2118.76L948.483 2079.79ZM1924.48 1959.31C1579.48 1909.27 1196.36 1910.72 888.429 2058.72L927.415 2139.83C1211.28 2003.41 1572.88 1999.26 1911.56 2048.38L1924.48 1959.31ZM2239.03 2040.07C2140.68 2006.58 2036.35 1979.21 1925.91 1959.54L1910.13 2048.15C2016 2067 2115.91 2093.22 2210.03 2125.27L2239.03 2040.07ZM3363 2916.3C3166.99 2622.32 2801.18 2231.47 2239.03 2040.07L2210.03 2125.27C2747.93 2308.41 3099.38 2683.16 3288.12 2966.23L3363 2916.3ZM3357.17 2973.3L3357.29 2973.18L3293.84 2909.35L3293.72 2909.47L3357.17 2973.3ZM3357.99 2910.3L3357.38 2909.68L3293.5 2973.08L3294.11 2973.7L3357.99 2910.3ZM3363.92 2917.67L3363.51 2917.05L3288.6 2966.94L3289.01 2967.56L3363.92 2917.67ZM3301.64 2905.08L3301.52 2905.17L3351.41 2980.07L3351.53 2979.99L3301.64 2905.08ZM3359.35 2911.67L3358.53 2910.84L3294.65 2974.24L3295.47 2975.06L3359.35 2911.67ZM3359.24 2911.56L3359.23 2911.55L3295.59 2975.19L3295.6 2975.2L3359.24 2911.56ZM3369.91 2922.12C3367.46 2919.83 3364.25 2916.6 3359.36 2911.68L3295.48 2975.08C3299.92 2979.55 3304.49 2984.17 3308.45 2987.87L3369.91 2922.12ZM3372.81 2924.7C3373.25 2924.92 3373.22 2924.97 3372.66 2924.53C3372.08 2924.08 3371.26 2923.38 3369.91 2922.11L3308.46 2987.87C3312.66 2991.8 3320.48 2998.9 3331.13 3004.46L3372.81 2924.7ZM3370.64 2923.93C3370.21 2923.9 3370.44 2923.89 3371.01 2924.03C3371.64 2924.18 3372.28 2924.42 3372.81 2924.7L3331.13 3004.46C3344.2 3011.29 3356.32 3013.25 3365.46 3013.78L3370.64 2923.93ZM3376.3 2923.94C3374.83 2923.96 3373.58 2923.97 3372.44 2923.96C3371.88 2923.96 3371.44 2923.95 3371.1 2923.94C3370.74 2923.94 3370.6 2923.93 3370.64 2923.93L3365.47 3013.78C3369.71 3014.03 3374.76 3013.96 3377.06 3013.94L3376.3 2923.94ZM3376.26 2923.94L3376.19 2923.95L3377.16 3013.94L3377.23 3013.94L3376.26 2923.94ZM3379.89 2923.93C3378.71 2923.92 3377.39 2923.94 3376.37 2923.94L3377.12 3013.94C3378.31 3013.93 3379.05 3013.93 3379.58 3013.93L3379.89 2923.93ZM3395.58 2918.11C3390.88 2922.15 3386.57 2923.95 3379.89 2923.93L3379.59 3013.93C3409.38 3014.03 3434.31 3003.51 3454.27 2986.34L3395.58 2918.11ZM3416.09 2891.64C3407.38 2905.03 3401.36 2913.13 3395.57 2918.11L3454.27 2986.34C3470.96 2971.97 3483.14 2953.61 3491.52 2940.73L3416.09 2891.64ZM3427.19 2952.56L3429.26 2953.9L3478.35 2878.47L3476.28 2877.12L3427.19 2952.56ZM3537.18 2639.74C3498.88 2730.65 3451.96 2823.2 3412.59 2892.65L3490.89 2937.03C3531.76 2864.92 3580.29 2769.22 3620.12 2674.68L3537.18 2639.74ZM3610.14 2384.06C3609.95 2443.6 3579.69 2538.82 3537.17 2639.74L3620.12 2674.68C3662.38 2574.34 3699.88 2463.96 3700.14 2384.36L3610.14 2384.06ZM3590.04 2266.99C3606.21 2312.54 3610.28 2342.99 3610.14 2384.06L3700.14 2384.36C3700.31 2333.75 3694.76 2292.92 3674.86 2236.88L3590.04 2266.99ZM3614.64 2210.35L3610.58 2212.61L3654.32 2291.26L3658.39 2289L3614.64 2210.35ZM3002.43 1527.1C3240.82 1740.59 3441.89 1992.29 3597.19 2271.55L3675.84 2227.81C3515.67 1939.79 3308.31 1680.22 3062.48 1460.05L3002.43 1527.1ZM2999.66 1462.76L2999.48 1462.95L3065.43 1524.2L3065.61 1524.01L2999.66 1462.76ZM2569.09 1173.76C2726.66 1286.15 2871.57 1406.21 3002.15 1526.48L3063.12 1460.28C2930.12 1337.79 2782.32 1215.3 2621.35 1100.49L2569.09 1173.76ZM2560.62 1083.9C2558.28 1096.86 2555.23 1111.09 2551.49 1126.52L2638.95 1147.74C2643.04 1130.9 2646.47 1114.92 2649.19 1099.92L2560.62 1083.9ZM2569.3 1064.39L2569.15 1064.58L2640.66 1119.23L2640.81 1119.04L2569.3 1064.39ZM2577.64 1127.41L2577.74 1127.48L2632.36 1055.95L2632.26 1055.88L2577.64 1127.41ZM2560.7 1083.49L2560.69 1083.53L2649.21 1099.76L2649.22 1099.72L2560.7 1083.49ZM2596.91 1135.88L2596.98 1135.89L2612.94 1047.32L2612.86 1047.3L2596.91 1135.88ZM2408.05 997.699L2577.55 1127.34L2632.22 1055.85L2462.72 926.21L2408.05 997.699ZM2283.73 931.423C2310.96 940.552 2365.24 964.248 2407.67 997.41L2463.09 926.499C2410.21 885.164 2345.87 857.332 2312.34 846.09L2283.73 931.423ZM2336.29 916.204L2340.7 903.06L2255.37 874.454L2250.96 887.599L2336.29 916.204ZM2277.07 943.744L2277.08 943.751L2310.17 860.052L2310.15 860.045L2277.07 943.744ZM2324.11 947.689C2327.91 937.751 2331.68 928.006 2335.46 918.421L2251.75 885.368C2247.81 895.352 2243.92 905.413 2240.06 915.505L2324.11 947.689ZM1840.76 919.812C1979.14 857.28 2136.41 906.526 2261.31 971.517L2302.85 891.677C2173.21 824.225 1982.22 757.127 1803.7 837.797L1840.76 919.812ZM1780.66 896.037L1780.76 896.265L1863.71 861.344L1863.61 861.116L1780.66 896.037ZM1796.73 938.391C1811.12 932.186 1825.32 926.061 1839.59 920.052L1804.68 837.101C1789.98 843.289 1775.41 849.571 1761.09 855.75L1796.73 938.391ZM1446.52 1030.15C1585.29 1030.1 1694.61 982.438 1796.73 938.391L1761.09 855.75C1657.7 900.344 1564.32 940.109 1446.49 940.151L1446.52 1030.15ZM1401.51 985.147V985.151H1491.51V985.147H1401.51ZM1097.32 936.337C1198.77 981.086 1307.75 1029.68 1446.35 1030.15L1446.66 940.147C1329.27 939.755 1236.39 899.314 1133.64 853.992L1097.32 936.337ZM1052.67 916.817C1067.53 923.201 1082.32 929.723 1097.32 936.337L1133.64 853.992C1118.71 847.406 1103.52 840.706 1088.18 834.119L1052.67 916.817ZM1030 855.685L1029.69 856.332L1111.15 894.605L1111.46 893.958L1030 855.685ZM966.362 890.648C995.559 894.825 1024.32 902.737 1051.59 915.55L1089.86 834.093C1053.41 816.964 1015.85 806.813 979.109 801.555L966.362 890.648ZM1025.03 289.837L928.418 838.295L1017.05 853.908L1113.66 305.45L1025.03 289.837ZM1029.66 263.523L1025.03 289.837L1113.66 305.45L1118.3 279.136L1029.66 263.523ZM1047.11 316.24L1073.83 316.329L1074.13 226.33L1047.41 226.24L1047.11 316.24ZM703.337 315.089L1047.11 316.24L1047.41 226.24L703.638 225.09L703.337 315.089ZM676.618 315L703.337 315.089L703.638 225.09L676.92 225L676.618 315ZM725.597 288.834L721.138 262.49L632.4 277.51L636.859 303.854L725.597 288.834ZM3032.27 1493.5L3031.06 1492.38L2970.1 1558.59L2971.31 1559.71L3032.27 1493.5ZM2968.86 1495.94L2968.82 1495.98L3034.77 1557.22L3034.81 1557.18L2968.86 1495.94ZM3626.53 2231.88C3470.07 1955.1 3269.15 1705.43 3031.85 1493.03L2971.82 1560.09C3201.82 1765.96 3396.55 2007.94 3548.19 2276.17L3626.53 2231.88ZM3601.5 2296.79L3603.33 2296.09L3571.39 2211.95L3569.55 2212.65L3601.5 2296.79ZM3655.14 2384.21C3655.31 2334.5 3649.64 2296.79 3627.6 2238.74L3543.46 2270.69C3561.57 2318.39 3565.27 2345.17 3565.14 2383.91L3655.14 2384.21ZM3578.65 2657.21C3600.33 2605.72 3619.18 2555.03 3632.7 2509.07C3646.02 2463.8 3655.02 2420.31 3655.14 2384.21L3565.14 2383.91C3565.07 2407.34 3558.84 2441.23 3546.36 2483.67C3534.08 2525.43 3516.54 2572.82 3495.7 2622.27L3578.65 2657.21ZM3440.26 2934.82C3482.49 2862.39 3535.78 2758.96 3578.65 2657.21L3495.7 2622.27C3454.47 2720.14 3402.96 2820.11 3362.51 2889.48L3440.26 2934.82ZM3424.2 2873.36L3424.18 2873.35L3378.59 2950.95L3378.61 2950.96L3424.2 2873.36ZM3424.92 2952.22C3428.94 2948.77 3432.46 2945.08 3435.6 2941.41L3367.2 2882.91C3366.29 2883.98 3365.98 2884.21 3366.23 2884L3424.92 2952.22ZM3379.74 2968.93C3387.32 2968.95 3395.77 2967.92 3404.52 2964.58C3413.22 2961.27 3419.89 2956.56 3424.92 2952.22L3366.23 2884C3366.58 2883.69 3368.75 2881.9 3372.45 2880.49C3376.21 2879.06 3379.16 2878.92 3380.04 2878.93L3379.74 2968.93ZM3377.2 2968.93C3378.03 2968.93 3378.89 2968.92 3379.74 2968.93L3380.03 2878.93C3378.78 2878.92 3377.6 2878.93 3376.57 2878.94L3377.2 2968.93ZM3376.19 2968.94C3376.51 2968.94 3376.85 2968.94 3377.2 2968.93L3376.56 2878.94C3376.16 2878.94 3375.76 2878.94 3375.38 2878.95L3376.19 2968.94ZM3375.39 2968.95L3376.2 2968.94L3375.36 2878.95L3374.55 2878.95L3375.39 2968.95ZM3374.42 2968.96L3375.38 2968.95L3374.56 2878.95L3373.6 2878.96L3374.42 2968.96ZM3374.06 2968.96L3374.37 2968.96L3373.66 2878.96L3373.35 2878.96L3374.06 2968.96ZM3371.63 2968.96C3372.38 2968.97 3373.18 2968.97 3374.02 2968.96L3373.38 2878.96C3372.79 2878.97 3372.47 2878.97 3372.31 2878.97L3371.63 2968.96ZM3339.18 2954.99C3340.53 2956.25 3341.74 2957.33 3342.83 2958.26L3401.1 2889.67C3401.22 2889.77 3401.08 2889.66 3400.64 2889.24L3339.18 2954.99ZM3329.13 2945.1C3332.88 2948.87 3336.24 2952.24 3339.18 2954.99L3400.63 2889.24C3399.14 2887.85 3397.02 2885.74 3392.98 2881.67L3329.13 2945.1ZM2260.79 2095.4C2788.56 2286.2 3135.11 2656.63 3323.66 2938.41L3398.46 2888.36C3202.76 2595.9 2842.37 2209.95 2291.39 2010.76L2260.79 2095.4ZM2388.98 1959.09C2338.96 1965.82 2293.46 1985.36 2249.93 2016.46L2302.25 2089.69C2335.69 2065.8 2367.6 2052.78 2400.98 2048.28L2388.98 1959.09ZM2606.46 1997.6C2524.92 1963.57 2454.18 1950.32 2388.98 1959.09L2400.98 2048.28C2445.09 2042.35 2499.16 2050.34 2571.79 2080.66L2606.46 1997.6ZM3289.12 2462.82C2980.5 2218.28 2768.48 2065.24 2606.46 1997.6L2571.79 2080.66C2720.25 2142.63 2922.46 2287.11 3233.22 2533.36L3289.12 2462.82ZM3257.29 2434.61L3227.49 2468.24L3294.85 2527.93L3324.65 2494.3L3257.29 2434.61ZM3004.4 2257.72C3091.45 2337.17 3180.56 2418.52 3259.32 2496.45L3322.62 2432.47C3242.34 2353.03 3151.82 2270.42 3065.07 2191.24L3004.4 2257.72ZM3005.92 2259.05L3005.92 2259.05L3063.54 2189.91L3063.54 2189.91L3005.92 2259.05ZM2835.42 2101.59C2887.84 2151.34 2945.66 2204.11 3004.39 2257.72L3065.06 2191.24C3006.18 2137.5 2949.04 2085.35 2897.37 2036.31L2835.42 2101.59ZM2667.83 1928.82C2711.68 1980.95 2770.09 2039.59 2835.42 2101.59L2897.37 2036.31C2832.65 1974.88 2777.21 1919.04 2736.7 1870.88L2667.83 1928.82ZM2584.95 1788.4C2589.11 1810.21 2599.72 1832.73 2613.2 1854.82C2626.99 1877.41 2645.42 1902.18 2667.83 1928.82L2736.7 1870.88C2716.1 1846.39 2700.68 1825.4 2690.02 1807.93C2679.05 1789.95 2674.61 1778.11 2673.37 1771.56L2584.95 1788.4ZM2596.01 1642.14C2583.92 1696.27 2577.44 1748.91 2584.95 1788.4L2673.37 1771.56C2669.52 1751.34 2672.16 1714.1 2683.85 1661.77L2596.01 1642.14ZM2646.53 1473C2627.08 1527.68 2608.29 1587.21 2596.01 1642.14L2683.85 1661.77C2695.01 1611.82 2712.5 1556.1 2731.32 1503.15L2646.53 1473ZM2701.69 1331.3C2686.29 1367.91 2666 1418.23 2646.53 1473L2731.32 1503.15C2750.07 1450.45 2769.68 1401.77 2784.65 1366.2L2701.69 1331.3ZM2715.83 1298.29C2711.87 1307.37 2707.08 1318.5 2701.69 1331.29L2784.65 1366.2C2789.87 1353.8 2794.5 1343.03 2798.32 1334.29L2715.83 1298.29ZM2998.43 1462.63C2930.92 1401.62 2859.77 1340.81 2785.18 1281.15L2728.96 1351.43C2802.06 1409.9 2871.84 1469.53 2938.09 1529.4L2998.43 1462.63ZM3001.79 1526.04L3002.27 1525.49L2934.26 1466.54L2933.78 1467.09L3001.79 1526.04ZM3028.69 1490.2C3018.28 1480.92 3007.81 1471.71 2997.27 1462.56L2938.31 1530.56C2948.52 1539.42 2958.68 1548.35 2968.76 1557.35L3028.69 1490.2ZM3031.05 1492.37L3029.19 1490.66L2968.26 1556.9L2970.11 1558.6L3031.05 1492.37ZM1933.07 1915.11L1932.38 1914.99L1916.64 2003.6L1917.33 2003.72L1933.07 1915.11ZM1934.12 1915.24C1933.31 1915.12 1932.49 1915 1931.67 1914.88L1918.74 2003.95C1919.53 2004.06 1920.32 2004.18 1921.12 2004.3L1934.12 1915.24ZM1972.14 1966.33L1972.15 1966.25L1883.09 1953.29L1883.08 1953.36L1972.14 1966.33ZM2239.51 1992.75C2143.68 1960.86 2042.39 1934.67 1935.54 1915.55L1919.69 2004.14C2022.21 2022.49 2119.3 2047.6 2211.09 2078.14L2239.51 1992.75ZM2382.98 1914.49C2312.97 1923.91 2252.33 1954.73 2196.63 2000.75L2253.96 2070.13C2299.78 2032.27 2345.2 2010.39 2394.98 2003.69L2382.98 1914.49ZM2623.8 1956.08C2537.81 1920.18 2458.73 1904.3 2382.98 1914.49L2394.98 2003.69C2449.63 1996.33 2512.04 2006.95 2589.13 2039.13L2623.8 1956.08ZM2957 2153.88C2827.17 2061.85 2718.47 1995.59 2623.8 1956.08L2589.13 2039.13C2674.57 2074.8 2776.87 2136.5 2904.95 2227.3L2957 2153.88ZM2804.44 2134.23C2835.31 2163.53 2867.57 2193.45 2900.53 2223.73L2961.42 2157.45C2928.64 2127.34 2896.77 2097.78 2866.39 2068.95L2804.44 2134.23ZM2633.39 1957.79C2678.92 2011.9 2738.81 2071.94 2804.44 2134.23L2866.39 2068.95C2801.37 2007.24 2744.45 1950 2702.27 1899.85L2633.39 1957.79ZM2540.75 1796.82C2550.95 1850.41 2590.34 1906.6 2633.39 1957.79L2702.27 1899.85C2659.28 1848.75 2634.56 1808.35 2629.16 1779.98L2540.75 1796.82ZM2552.1 1632.33C2539.79 1687.41 2531.4 1747.73 2540.75 1796.82L2629.16 1779.98C2623.47 1750.12 2628.04 1705.17 2639.93 1651.96L2552.1 1632.33ZM2604.13 1457.92C2584.37 1513.47 2564.92 1574.91 2552.1 1632.33L2639.93 1651.96C2651.65 1599.52 2669.79 1541.89 2688.93 1488.08L2604.13 1457.92ZM2660.21 1313.84C2644.59 1350.97 2623.97 1402.13 2604.13 1457.92L2688.93 1488.08C2708.04 1434.34 2727.99 1384.84 2743.17 1348.75L2660.21 1313.84ZM2679.32 1269.51C2674.65 1280.08 2668.04 1295.24 2660.22 1313.84L2743.17 1348.75C2750.76 1330.71 2757.15 1316.05 2761.63 1305.92L2679.32 1269.51ZM2679.44 1269.24L2679.31 1269.52L2761.63 1305.91L2761.76 1305.62L2679.44 1269.24ZM2556.53 1220.48C2603.11 1254 2648.57 1288.2 2692.86 1322.87L2748.34 1251.99C2703.12 1216.61 2656.7 1181.68 2609.09 1147.43L2556.53 1220.48ZM2359.56 1838.67C2479.27 1603.15 2578.76 1362.3 2626.09 1196.29L2539.53 1171.62C2494.35 1330.1 2397.55 1565.3 2279.33 1797.89L2359.56 1838.67ZM2259.09 1838.09L2299.05 1858.4L2339.83 1778.17L2299.87 1757.86L2259.09 1838.09ZM2310.62 1830.46L2310.8 1830.29L2248.16 1765.66L2247.99 1765.83L2310.62 1830.46ZM1923.84 1496.04L2246.99 1829.47L2311.62 1766.83L1988.47 1433.41L1923.84 1496.04ZM1907.2 1478.87L1923.84 1496.04L1988.47 1433.41L1971.82 1416.23L1907.2 1478.87ZM1928.39 1397.82L1910.22 1413.38L1968.8 1481.72L1986.96 1466.15L1928.39 1397.82ZM1981.5 1349.24C1965.06 1365.32 1947.39 1381.52 1928.39 1397.82L1986.96 1466.15C2007.43 1448.6 2026.55 1431.07 2044.43 1413.59L1981.5 1349.24ZM2223.91 957.859C2177.19 1079.98 2122.15 1211.71 1981.5 1349.24L2044.43 1413.59C2199.15 1262.3 2259.82 1115.87 2307.97 990.02L2223.91 957.859ZM2074.46 947.495C2133.64 961.22 2191.91 985.809 2244.97 1013.75L2286.91 934.125C2229.54 903.906 2163.83 875.833 2094.8 859.822L2074.46 947.495ZM1693.35 1155.68C1809.77 1067.77 1941.51 976.17 2092.89 947.893L2076.37 859.423C1901.97 891.998 1755.14 996.244 1639.11 1083.85L1693.35 1155.68ZM1630.15 1146.66L1630.31 1146.88L1702.15 1092.65L1701.99 1092.44L1630.15 1146.66ZM1667.34 1173.62C1675.77 1167.66 1683.79 1161.99 1691.61 1156.6L1640.53 1082.5C1632.2 1088.24 1623.75 1094.21 1615.4 1100.11L1667.34 1173.62ZM1667.21 1173.71L1667.23 1173.69L1615.51 1100.04L1615.49 1100.05L1667.21 1173.71ZM1668.35 1172.88L1668.35 1172.88L1614.35 1100.88L1614.35 1100.88L1668.35 1172.88ZM1575.98 1232.94C1609.05 1214.87 1640.24 1192.76 1667.32 1173.63L1615.38 1100.13C1587.56 1119.78 1560.57 1138.8 1532.82 1153.97L1575.98 1232.94ZM1418.05 1276.99C1479.46 1276.9 1531.69 1257.15 1575.98 1232.94L1532.82 1153.97C1496.55 1173.79 1459.32 1186.93 1417.92 1186.99L1418.05 1276.99ZM1462.98 1233.3L1462.98 1232.14L1372.98 1231.84L1372.98 1233L1462.98 1233.3ZM1258.83 1233.03C1303.29 1257.72 1355.83 1277.94 1417.83 1278.15L1418.13 1188.15C1376.34 1188.01 1338.92 1174.56 1302.52 1154.35L1258.83 1233.03ZM1167.89 1173.11C1194.84 1192.43 1225.88 1214.74 1258.83 1233.03L1302.52 1154.35C1274.87 1138.99 1248 1119.8 1220.32 1099.96L1167.89 1173.11ZM1143.71 1155.92C1151.5 1161.37 1159.49 1167.09 1167.89 1173.11L1220.32 1099.96C1212 1094 1203.58 1087.96 1195.29 1082.16L1143.71 1155.92ZM1205.06 1146.61L1205.23 1146.4L1133.77 1091.68L1133.61 1091.9L1205.06 1146.61ZM1063.93 1091.01C1089.03 1112.28 1115.21 1134.49 1141.98 1154.98L1196.69 1083.52C1172.01 1064.62 1147.54 1043.9 1122.13 1022.36L1063.93 1091.01ZM1060.97 1088.5L1063.93 1091.01L1122.13 1022.35L1119.17 1019.85L1060.97 1088.5ZM982.358 1024.3C1008.94 1044.5 1034.5 1066.06 1060.97 1088.5L1119.16 1019.84C1092.86 997.547 1065.57 974.496 1036.81 952.641L982.358 1024.3ZM849.702 946.686C897.161 965.05 940.076 992.172 982.358 1024.3L1036.81 952.641C990.823 917.698 940.385 885.273 882.182 862.751L849.702 946.686ZM927.201 905.722C916.604 894.043 907.448 883.797 899.776 875.048L832.109 934.388C840.196 943.61 849.703 954.246 860.548 966.198L927.201 905.722ZM1042.86 1029.8C996.384 980.785 956.867 938.418 927.201 905.722L860.548 966.198C890.838 999.582 930.854 1042.48 977.546 1091.73L1042.86 1029.8ZM1378.59 1376.06C1255.69 1251.54 1135.76 1127.79 1042.86 1029.8L977.546 1091.73C1070.95 1190.24 1191.31 1314.43 1314.54 1439.28L1378.59 1376.06ZM1731.43 1726.26C1627.13 1625.64 1501.51 1500.6 1378.59 1376.06L1314.54 1439.28C1437.76 1564.13 1563.94 1689.73 1668.94 1791.04L1731.43 1726.26ZM1946.9 1922.63C1910.95 1895.71 1833.13 1824.38 1731.43 1726.26L1668.94 1791.04C1769.51 1888.05 1851.6 1963.71 1892.97 1994.68L1946.9 1922.63ZM1930.97 1914.78C1929.42 1914.56 1927.88 1914.33 1926.33 1914.11L1913.54 2003.2C1915.04 2003.41 1916.55 2003.63 1918.05 2003.85L1930.97 1914.78ZM1880.21 1951.37L1880.21 1951.4L1968.8 1967.23L1968.81 1967.21L1880.21 1951.37ZM2340.93 1775.5C2347.19 1762.91 2353.37 1750.33 2359.48 1737.78L2278.54 1698.41C2272.54 1710.75 2266.47 1723.11 2260.32 1735.48L2340.93 1775.5ZM1972.64 1481.74L2268.31 1786.81L2332.94 1724.17L2037.27 1419.1L1972.64 1481.74ZM1997.58 1396.17C1990.27 1403.04 1982.75 1409.93 1975.02 1416.82L2034.9 1484.01C2043.23 1476.59 2051.34 1469.16 2059.24 1461.73L1997.58 1396.17ZM2350.75 1686.19L2060.15 1397.05L1996.67 1460.85L2287.27 1749.99L2350.75 1686.19ZM2380.3 1694.46C2487.02 1469.75 2569.38 1254.21 2599.2 1120.06L2511.34 1100.53C2483.73 1224.75 2404.81 1433.07 2299 1655.84L2380.3 1694.46ZM2028.83 1429.38L2307.91 1707.05L2371.39 1643.25L2092.31 1365.58L2028.83 1429.38ZM2273.98 952.925C2226.74 1077.27 2172.69 1218.97 2028.45 1365.96L2092.69 1428.99C2250.88 1267.8 2310.26 1110.85 2358.11 984.882L2273.98 952.925ZM2282.07 931.673C2279.38 938.698 2276.68 945.799 2273.98 952.925L2358.11 984.882C2360.82 977.741 2363.49 970.731 2366.13 963.81L2282.07 931.673ZM2435.48 962.031C2405.42 938.522 2371.08 919.845 2342.93 906.873L2305.26 988.61C2329.58 999.815 2357.27 1015.12 2380.03 1032.92L2435.48 962.031ZM2435.57 962.103L2435.48 962.028L2380.04 1032.92L2380.13 1033L2435.57 962.103ZM2435.29 961.886L2435.2 961.812L2380.51 1033.29L2380.61 1033.37L2435.29 961.886ZM2582.61 1074.55L2435.29 961.882L2380.61 1033.37L2527.93 1146.04L2582.61 1074.55ZM1637.7 1823.42C1703.65 1887.05 1762.29 1942.11 1806.99 1981.58L1866.56 1914.11C1823.36 1875.97 1765.85 1822 1700.19 1758.65L1637.7 1823.42ZM1282.51 1470.89C1405.88 1595.89 1532.34 1721.77 1637.7 1823.42L1700.19 1758.65C1595.53 1657.69 1469.64 1532.37 1346.57 1407.67L1282.51 1470.89ZM944.89 1122.69C1038.54 1221.46 1159.12 1345.87 1282.51 1470.89L1346.57 1407.67C1223.5 1282.98 1103.35 1159.01 1010.2 1060.76L944.89 1122.69ZM827.221 996.437C857.823 1030.16 898.09 1073.32 944.89 1122.69L1010.2 1060.76C963.619 1011.63 923.853 969 893.874 935.96L827.221 996.437ZM777.054 939.174C788.976 953.735 806.356 973.44 827.221 996.437L893.874 935.96C873.192 913.165 857.091 894.862 846.692 882.16L777.054 939.174ZM609.171 1232.4C677.808 1100.52 762.973 1000.72 837.971 947.327L785.776 874.008C696.2 937.775 602.616 1050.05 529.337 1190.85L609.171 1232.4ZM605.522 1239.47C606.732 1237.11 607.949 1234.75 609.171 1232.4L529.336 1190.85C528.016 1193.39 526.702 1195.93 525.395 1198.49L605.522 1239.47ZM1338.53 1925.17C1184.76 1591.18 915.8 1323.72 583.556 1177.78L547.361 1260.18C858.951 1397.05 1111.98 1648.3 1256.78 1962.81L1338.53 1925.17ZM1841.96 1903.14C1662.2 1882.27 1473.85 1876.66 1292.08 1899.34L1303.23 1988.64C1475.95 1967.1 1656.78 1972.25 1831.58 1992.54L1841.96 1903.14ZM527.676 1300.69C825.716 1431.13 1068.9 1669.97 1210.33 1969.68L1291.73 1931.27C1141.25 1612.4 882.239 1357.63 563.762 1218.24L527.676 1300.69ZM483.017 1726.3C483.982 1565.27 525.24 1410.43 586.535 1278.41L504.904 1240.51C438.998 1382.46 394.072 1549.99 393.019 1725.76L483.017 1726.3ZM438.498 1681.04L438.168 1681.03L437.868 1771.03L438.197 1771.04L438.498 1681.04ZM589.067 1964.52C524.331 1906.75 483.059 1812.42 483.347 1726.19L393.348 1725.88C392.974 1837.42 444.863 1956.46 529.143 2031.67L589.067 1964.52ZM592.418 2028.35L592.68 2028.05L525.53 1968.13L525.268 1968.42L592.418 2028.35ZM877.003 2014.56C783.295 2048.03 667.026 2025.56 586.483 1962.87L531.203 2033.9C633.675 2113.65 781.865 2144.11 907.272 2099.32L877.003 2014.56ZM1244.19 1906C1114.89 1925.89 989.117 1960.96 872.802 2016.31L911.474 2097.58C1018.43 2046.68 1135.49 2013.78 1257.87 1994.95L1244.19 1906ZM915.716 927.464C948.935 944.967 979.831 965.863 1009.58 988.471L1064.04 916.812C1031.75 892.277 996.59 868.348 957.67 847.841L915.716 927.464ZM1070.73 874.821C1027.89 854.693 982.811 845.377 939.428 842.735L933.958 932.569C968.466 934.67 1001.96 941.951 1032.45 956.278L1070.73 874.821ZM1014.39 888.913L1010.86 896.413L1092.32 934.686L1095.84 927.185L1014.39 888.913ZM1092.92 934.077L1096.47 925.784L1013.76 890.314L1010.2 898.607L1092.92 934.077ZM1114.75 894.884C1099.64 888.2 1084.43 881.473 1069.29 874.984L1033.82 957.7C1048.41 963.954 1063.15 970.473 1078.35 977.194L1114.75 894.884ZM1110.78 893.348L1110.78 893.348L1082.32 978.73L1082.32 978.73L1110.78 893.348ZM1444.57 985.137C1317.98 984.266 1216.56 939.913 1114.75 894.885L1078.35 977.194C1179.1 1021.75 1296.37 1074.12 1443.95 1075.14L1444.57 985.137ZM1489.26 1030.15V1030.14H1399.26V1030.15H1489.26ZM1779.35 896.913C1675.94 941.635 1573.17 985.578 1444.41 985.147L1444.11 1075.15C1593.93 1075.65 1712.66 1023.81 1815.08 979.521L1779.35 896.913ZM1820.8 879.142C1806.99 884.961 1793.13 890.955 1779.35 896.913L1815.08 979.521C1828.92 973.533 1842.4 967.704 1855.76 962.072L1820.8 879.142ZM1879.26 902.018L1879.13 901.737L1797.43 939.477L1797.56 939.758L1879.26 902.018ZM1960.67 846.403C1913.32 848.539 1865.66 858.742 1819.55 880.032L1857.27 961.743C1891.65 945.873 1927.69 937.982 1964.73 936.312L1960.67 846.403ZM1668.29 1118.21C1757.53 1050.89 1860.69 977.464 1978.43 933.517L1946.96 849.198C1815.91 898.11 1703.76 978.719 1614.08 1046.36L1668.29 1118.21ZM1604.01 1107.65L1604.12 1107.81L1678.25 1056.77L1678.14 1056.6L1604.01 1107.65ZM1639.77 1137.97C1648.76 1131.62 1657.6 1125.38 1666.59 1119.19L1615.55 1045.06C1606.05 1051.61 1596.77 1058.16 1587.85 1064.46L1639.77 1137.97ZM1639.53 1138.14L1639.54 1138.14L1588.08 1064.3L1588.07 1064.31L1639.53 1138.14ZM1554.4 1193.45C1584.97 1176.74 1613.18 1156.76 1639.76 1137.98L1587.83 1064.47C1560.5 1083.78 1536.5 1100.67 1511.23 1114.48L1554.4 1193.45ZM1416.83 1231.99C1468.72 1232.16 1513.82 1215.63 1554.4 1193.45L1511.23 1114.48C1478.75 1132.24 1448.82 1142.1 1417.13 1141.99L1416.83 1231.99ZM1461.98 1188.29L1461.98 1187.14L1371.98 1186.84L1371.98 1187.99L1461.98 1188.29ZM1280.67 1193.69C1320.73 1215.93 1365.26 1232.67 1416.56 1233.14L1417.39 1143.14C1386.05 1142.85 1356.44 1132.82 1324.37 1115.01L1280.67 1193.69ZM1195.69 1137.65C1222.14 1156.6 1250.21 1176.77 1280.67 1193.69L1324.37 1115.01C1299.19 1101.03 1275.31 1083.98 1248.1 1064.49L1195.69 1137.65ZM1168.98 1118.68C1177.93 1124.93 1186.73 1131.24 1195.69 1137.65L1248.1 1064.49C1239.21 1058.12 1229.98 1051.51 1220.52 1044.89L1168.98 1118.68ZM1231.53 1107.71L1231.64 1107.55L1157.85 1056.02L1157.74 1056.18L1231.53 1107.71ZM1092.71 1056.41C1117.36 1077.31 1142.08 1098.27 1167.18 1117.6L1222.09 1046.29C1198.96 1028.48 1175.87 1008.92 1150.9 987.757L1092.71 1056.41ZM1092.17 1055.95L1092.17 1055.95L1151.44 988.218L1151.44 988.217L1092.17 1055.95ZM1092.51 1056.24L1092.52 1056.25L1151.09 987.916L1151.08 987.91L1092.51 1056.24ZM1091.9 1055.71L1091.9 1055.71L1151.69 988.443L1151.69 988.441L1091.9 1055.71ZM1090.07 1054.17L1092.7 1056.4L1150.89 987.747L1148.26 985.516L1090.07 1054.17ZM1009.58 988.471C1037.26 1009.5 1063.68 1031.81 1090.07 1054.17L1148.26 985.515C1122.03 963.287 1093.88 939.493 1064.04 916.812L1009.58 988.471ZM2880.46 1981C2921.05 1981 2953.96 1948.1 2953.96 1907.5H2863.96C2863.96 1898.39 2871.35 1891 2880.46 1891V1981ZM2806.96 1907.5C2806.96 1948.1 2839.87 1981 2880.46 1981V1891C2889.57 1891 2896.96 1898.39 2896.96 1907.5H2806.96ZM2880.46 1834C2839.87 1834 2806.96 1866.91 2806.96 1907.5H2896.96C2896.96 1916.62 2889.57 1924 2880.46 1924V1834ZM2953.96 1907.5C2953.96 1866.91 2921.05 1834 2880.46 1834V1924C2871.35 1924 2863.96 1916.62 2863.96 1907.5H2953.96ZM2786.96 1819.5C2786.96 1810.39 2794.35 1803 2803.46 1803V1893C2844.05 1893 2876.96 1860.1 2876.96 1819.5H2786.96ZM2803.46 1836C2794.35 1836 2786.96 1828.62 2786.96 1819.5H2876.96C2876.96 1778.91 2844.05 1746 2803.46 1746V1836ZM2819.96 1819.5C2819.96 1828.62 2812.57 1836 2803.46 1836V1746C2762.87 1746 2729.96 1778.91 2729.96 1819.5H2819.96ZM2803.46 1803C2812.57 1803 2819.96 1810.39 2819.96 1819.5H2729.96C2729.96 1860.1 2762.87 1893 2803.46 1893V1803ZM2746.46 1769C2787.05 1769 2819.96 1736.1 2819.96 1695.5H2729.96C2729.96 1686.39 2737.35 1679 2746.46 1679V1769ZM2672.96 1695.5C2672.96 1736.1 2705.87 1769 2746.46 1769V1679C2755.57 1679 2762.96 1686.39 2762.96 1695.5H2672.96ZM2746.46 1622C2705.87 1622 2672.96 1654.91 2672.96 1695.5H2762.96C2762.96 1704.62 2755.57 1712 2746.46 1712V1622ZM2819.96 1695.5C2819.96 1654.91 2787.05 1622 2746.46 1622V1712C2737.35 1712 2729.96 1704.62 2729.96 1695.5H2819.96Z" fill="white" mask="url(#path-2-inside-1)"/>
<path d="M672.5 2560.5C690.5 2560.5 714 2563.17 743 2568.5L742 2606C714.667 2600.67 691.5 2598 672.5 2598C653.167 2598 639.167 2601.83 630.5 2609.5C622.167 2617.17 618 2628.83 618 2644.5V2657.5C618 2665.83 619 2672.5 621 2677.5C623.333 2682.17 627.333 2686.33 633 2690C638.667 2693.33 647.167 2696.83 658.5 2700.5L705 2716C727.333 2723.67 743 2733.83 752 2746.5C761.333 2759.17 766 2777.67 766 2802V2811.5C766 2841.17 757.333 2863.33 740 2878C723 2892.67 695 2900 656 2900C637 2900 612.667 2896.67 583 2890L584 2851.5C611.667 2858.17 635.333 2861.5 655 2861.5C680 2861.5 697.667 2857.83 708 2850.5C718.333 2842.83 723.5 2831 723.5 2815V2798.5C723.5 2786.83 720.833 2778 715.5 2772C710.5 2765.67 701.5 2760.33 688.5 2756L637 2739C614 2731.33 598 2721.5 589 2709.5C580 2697.17 575.5 2678.67 575.5 2654V2648.5C575.5 2619.5 583.167 2597.67 598.5 2583C614.167 2568 638.833 2560.5 672.5 2560.5ZM898.469 2644C926.469 2644 947.802 2651.67 962.469 2667C977.135 2682.33 984.469 2704.5 984.469 2733.5V2785H855.969V2814.5C855.969 2831.5 859.969 2843.83 867.969 2851.5C876.302 2858.83 889.302 2862.5 906.969 2862.5C924.302 2862.5 945.969 2859.83 971.969 2854.5L972.969 2891.5C941.969 2897.17 919.802 2900 906.469 2900C873.469 2900 849.635 2892.83 834.969 2878.5C820.635 2864.17 813.469 2842 813.469 2812V2733.5C813.469 2704.5 820.469 2682.33 834.469 2667C848.802 2651.67 870.135 2644 898.469 2644ZM898.469 2679.5C885.469 2679.5 875.135 2683.67 867.469 2692C859.802 2700 855.969 2711.67 855.969 2727V2751H941.969V2728.5C941.969 2712.5 937.969 2700.33 929.969 2692C922.302 2683.67 911.802 2679.5 898.469 2679.5ZM1148.6 2644C1169.93 2644 1186.27 2651.33 1197.6 2666C1209.27 2680.33 1215.1 2700.83 1215.1 2727.5V2894H1172.6V2733.5C1172.6 2700.17 1161.77 2683.5 1140.1 2683.5C1130.43 2683.5 1120.6 2687.17 1110.6 2694.5C1100.6 2701.83 1091.93 2711.83 1084.6 2724.5V2894H1042.1V2650H1082.1V2686.5C1091.1 2672.83 1101.1 2662.33 1112.1 2655C1123.43 2647.67 1135.6 2644 1148.6 2644ZM1453.27 2894H1412.77V2854.5C1392.77 2884.83 1369.93 2900 1344.27 2900C1323.6 2900 1307.77 2893 1296.77 2879C1285.77 2864.67 1280.27 2843.83 1280.27 2816.5V2727.5C1280.27 2701.17 1286.27 2680.67 1298.27 2666C1310.6 2651.33 1328.1 2644 1350.77 2644C1360.43 2644 1370.6 2646.5 1381.27 2651.5C1391.93 2656.17 1401.77 2662 1410.77 2669V2552.5H1453.27V2894ZM1360.27 2682C1348.27 2682 1338.93 2686.33 1332.27 2695C1325.93 2703.33 1322.77 2716.17 1322.77 2733.5V2811C1322.77 2845 1333.27 2862 1354.27 2862C1364.27 2862 1374.1 2858.17 1383.77 2850.5C1393.77 2842.5 1402.77 2831.33 1410.77 2817V2707C1403.77 2699.67 1395.43 2693.67 1385.77 2689C1376.43 2684.33 1367.93 2682 1360.27 2682ZM1697.4 2560.5C1715.4 2560.5 1738.9 2563.17 1767.9 2568.5L1766.9 2606C1739.57 2600.67 1716.4 2598 1697.4 2598C1678.07 2598 1664.07 2601.83 1655.4 2609.5C1647.07 2617.17 1642.9 2628.83 1642.9 2644.5V2657.5C1642.9 2665.83 1643.9 2672.5 1645.9 2677.5C1648.24 2682.17 1652.24 2686.33 1657.9 2690C1663.57 2693.33 1672.07 2696.83 1683.4 2700.5L1729.9 2716C1752.24 2723.67 1767.9 2733.83 1776.9 2746.5C1786.24 2759.17 1790.9 2777.67 1790.9 2802V2811.5C1790.9 2841.17 1782.24 2863.33 1764.9 2878C1747.9 2892.67 1719.9 2900 1680.9 2900C1661.9 2900 1637.57 2896.67 1607.9 2890L1608.9 2851.5C1636.57 2858.17 1660.24 2861.5 1679.9 2861.5C1704.9 2861.5 1722.57 2857.83 1732.9 2850.5C1743.24 2842.83 1748.4 2831 1748.4 2815V2798.5C1748.4 2786.83 1745.74 2778 1740.4 2772C1735.4 2765.67 1726.4 2760.33 1713.4 2756L1661.9 2739C1638.9 2731.33 1622.9 2721.5 1613.9 2709.5C1604.9 2697.17 1600.4 2678.67 1600.4 2654V2648.5C1600.4 2619.5 1608.07 2597.67 1623.4 2583C1639.07 2568 1663.74 2560.5 1697.4 2560.5ZM1893.37 2650H1958.37V2685H1893.37V2828C1893.37 2840.67 1895.87 2849.83 1900.87 2855.5C1906.2 2860.83 1914.37 2863.5 1925.37 2863.5C1939.37 2863.5 1953.04 2861.83 1966.37 2858.5L1967.37 2894C1952.7 2898 1939.37 2900 1927.37 2900C1900.7 2900 1881.2 2894.17 1868.87 2882.5C1856.87 2870.5 1850.87 2851.17 1850.87 2824.5V2685H1815.87V2650H1850.87L1858.87 2585H1893.37V2650ZM2095.32 2644C2124.98 2644 2146.98 2652 2161.32 2668C2175.98 2683.67 2183.32 2706 2183.32 2735V2809C2183.32 2838 2175.98 2860.5 2161.32 2876.5C2146.98 2892.17 2124.98 2900 2095.32 2900C2065.65 2900 2043.48 2892.17 2028.82 2876.5C2014.48 2860.5 2007.32 2838 2007.32 2809V2735C2007.32 2706 2014.48 2683.67 2028.82 2668C2043.48 2652 2065.65 2644 2095.32 2644ZM2095.32 2679.5C2080.98 2679.5 2069.82 2684 2061.82 2693C2053.82 2702 2049.82 2714.83 2049.82 2731.5V2812.5C2049.82 2829.17 2053.82 2842 2061.82 2851C2069.82 2860 2080.98 2864.5 2095.32 2864.5C2109.65 2864.5 2120.82 2860 2128.82 2851C2136.82 2842 2140.82 2829.17 2140.82 2812.5V2731C2140.82 2714.33 2136.82 2701.67 2128.82 2693C2120.82 2684 2109.65 2679.5 2095.32 2679.5ZM2354.66 2644C2359.32 2644 2362.99 2644.33 2365.66 2645V2693C2360.66 2692 2354.16 2691.5 2346.16 2691.5C2322.82 2691.5 2304.32 2703.17 2290.66 2726.5V2894H2248.16V2650H2288.16V2686.5C2297.16 2672.83 2307.16 2662.33 2318.16 2655C2329.49 2647.67 2341.66 2644 2354.66 2644ZM2598.52 2650L2486.52 2986.5H2444.02L2476.02 2894H2460.02L2390.52 2650H2437.02L2489.52 2863.5L2554.52 2650H2598.52Z" fill="white"/>
</svg>
