<svg xmlns="http://www.w3.org/2000/svg" width="244" height="244" viewBox="0 0 244 244">
  <g id="icon" transform="translate(14271 -15181)">
    <circle id="Ellipse_6885" data-name="Ellipse 6885" cx="122" cy="122" r="122" transform="translate(-14271 15181)" fill="rgba(91,58,204,0.08)"/>
    <path id="question_1_" data-name="question (1)" d="M56.294,88.526a4.415,4.415,0,1,1,4.415-4.415A4.415,4.415,0,0,1,56.294,88.526ZM60.71,68.657V62.729A18.406,18.406,0,1,0,43.343,31.687,18.079,18.079,0,0,0,37.75,44.815a4.415,4.415,0,0,0,8.831,0,9.321,9.321,0,0,1,2.888-6.767,9.768,9.768,0,0,1,7.21-2.719,9.534,9.534,0,0,1,1.745,18.865,8.255,8.255,0,0,0-6.545,8.1v6.363a4.415,4.415,0,1,0,8.831,0Zm25.048,36.229a4.415,4.415,0,1,0-4.575-7.553A48.105,48.105,0,1,1,96.115,82.982a4.415,4.415,0,1,0,7.34,4.908,56.487,56.487,0,0,0-86.9-71.337,56.521,56.521,0,0,0,69.206,88.334Zm0,0" transform="translate(-14205.515 15246.484)" fill="#5b3acc"/>
  </g>
</svg>
